<?xml version="1.0" encoding="iso-8859-1"?>
<!-- Generator: Adobe Illustrator 19.0.0, SVG Export Plug-In . SVG Version: 6.00 Build 0)  -->
<svg version="1.1" id="Layer_1" xmlns="http://www.w3.org/2000/svg" xmlns:xlink="http://www.w3.org/1999/xlink" x="0px" y="0px"
	 viewBox="0 0 512 512" style="enable-background:new 0 0 512 512;" xml:space="preserve">
<g>
	<rect x="73.399" y="476.384" style="fill:#1E6882;" width="98.459" height="35.616"/>
	<rect x="358.305" y="476.384" style="fill:#1E6882;" width="98.459" height="35.616"/>
</g>
<rect x="26.263" style="fill:#247396;" width="477.633" height="477.633"/>
<g>
	<polygon style="fill:#3D8AA5;" points="386.554,0 31.083,477.633 26.263,477.633 26.263,333.491 274.458,0 	"/>
	<polygon style="fill:#3D8AA5;" points="475.622,0 120.138,477.633 71.945,477.633 427.404,0 	"/>
</g>
<path style="fill:#1E6882;" d="M471.366,445.099H58.799V32.534h412.566v412.566H471.366z M77.531,426.367h375.1v-375.1h-375.1
	V426.367z"/>
<g>
	<rect x="8.104" y="97.41" style="fill:#4091AD;" width="77.516" height="94.275"/>
	<rect x="8.104" y="285.948" style="fill:#4091AD;" width="77.516" height="94.275"/>
</g>
<circle style="fill:#E6E6E6;" cx="269.1" cy="238.729" r="93.264"/>
<path style="fill:#1E6882;" d="M269.1,138.599c-55.214,0-100.135,44.921-100.135,100.135s44.92,100.135,100.135,100.135
	s100.135-44.92,100.135-100.135S324.314,138.599,269.1,138.599z M269.1,271.675c-18.163,0-32.94-14.778-32.94-32.94
	c0-18.163,14.778-32.941,32.94-32.941c18.163,0,32.941,14.778,32.941,32.941C302.041,256.897,287.264,271.675,269.1,271.675z
	 M296.876,201.245c-6.023-4.475-13.158-7.532-20.907-8.679v-39.932c18.665,1.476,35.673,8.901,49.131,20.386L296.876,201.245z
	 M262.232,192.566c-7.749,1.148-14.882,4.205-20.906,8.679l-28.224-28.224c13.458-11.486,30.466-18.91,49.131-20.386v39.931H262.232
	z M231.611,210.96c-4.475,6.023-7.532,13.158-8.679,20.907H183c1.476-18.665,8.901-35.673,20.386-49.131L231.611,210.96z
	 M222.932,245.603c1.148,7.749,4.205,14.882,8.679,20.906l-28.224,28.224c-11.486-13.458-18.91-30.466-20.386-49.131h39.931V245.603
	z M241.326,276.223c6.023,4.475,13.157,7.532,20.906,8.679v39.932c-18.665-1.476-35.672-8.901-49.131-20.386L241.326,276.223z
	 M275.969,284.903c7.749-1.148,14.882-4.205,20.907-8.679l28.224,28.224c-13.458,11.486-30.466,18.91-49.131,20.386L275.969,284.903
	L275.969,284.903z M306.589,266.51c4.475-6.023,7.532-13.157,8.679-20.906h39.932c-1.476,18.665-8.901,35.672-20.386,49.131
	L306.589,266.51z M315.269,231.865c-1.148-7.749-4.205-14.882-8.679-20.907l28.224-28.224c11.486,13.458,18.91,30.466,20.386,49.131
	H315.269z"/>
<g>
</g>
<g>
</g>
<g>
</g>
<g>
</g>
<g>
</g>
<g>
</g>
<g>
</g>
<g>
</g>
<g>
</g>
<g>
</g>
<g>
</g>
<g>
</g>
<g>
</g>
<g>
</g>
<g>
</g>
</svg>
